<svg xmlns="http://www.w3.org/2000/svg" viewBox="0 0 64 64" id="college">
  <path d="M62.479,27.122,52,21.406V19h2a1,1,0,0,0,1-1V13a1,1,0,0,0-1-1H51.268L32.5,1.135a1,1,0,0,0-1,0L12.732,12H10a1,1,0,0,0-1,1v5a1,1,0,0,0,1,1h2v2.406L1.521,27.122A1,1,0,0,0,1,28V62a1,1,0,0,0,1,1H62a1,1,0,0,0,1-1V28A1,1,0,0,0,62.479,27.122ZM61,28.594V57H59V37.5a4.5,4.5,0,0,0-7-3.738V23.684ZM36,57H28V45a4,4,0,0,1,8,0ZM32,39a6.006,6.006,0,0,0-6,6V57H22V54a1,1,0,0,0-1-1H19V19H45V53H43a1,1,0,0,0-1,1v3H38V45A6.006,6.006,0,0,0,32,39ZM12,53H10a1,1,0,0,0-1,1v3H7V37.5a2.5,2.5,0,0,1,5,0Zm-1,2h9v2H11Zm33,0h9v2H44Zm10-2H52V37.5a2.5,2.5,0,0,1,5,0V57H55V54A1,1,0,0,0,54,53Zm-4,0H47V19h3ZM32,3.155,47.277,12H16.723ZM11,14H53v3H11Zm6,5V53H14V19Zm-5,4.684V33.762A4.5,4.5,0,0,0,5,37.5V57H3V28.594ZM61,61H3V59H61Z"></path>
  <path d="M24 23a3 3 0 00-3 3v7a1 1 0 001 1h4a1 1 0 001-1V26A3 3 0 0024 23zm1 9H23V26a1 1 0 012 0zM42 34a1 1 0 001-1V26a3 3 0 00-6 0v7a1 1 0 001 1zm-3-8a1 1 0 012 0v6H39zM32 23a3 3 0 00-3 3v7a1 1 0 001 1h4a1 1 0 001-1V26A3 3 0 0032 23zm1 9H31V26a1 1 0 012 0z"></path>
</svg>
